<?xml version="1.0" encoding="UTF-8"?>
<svg id="Ebene_1" xmlns="http://www.w3.org/2000/svg" version="1.1" viewBox="0 0 576 512">
  <!-- Generator: Adobe Illustrator 29.6.1, SVG Export Plug-In . SVG Version: 2.1.1 Build 9)  -->
  <defs>
    <style>
      .st0 {
        fill: #fdc300;
        stroke: #1d1d1b;
        stroke-miterlimit: 10;
        stroke-width: 15px;
      }
    </style>
  </defs>
  <path class="st0" d="M377,52c11-13.8,8.8-33.9-5-45s-33.9-8.8-45,5l-39,48.8-39-48.8c-11-13.8-31.2-16-45-5s-16,31.2-5,45l48,60L12.3,405.4c-8,10-12.3,22.3-12.3,35v23.6c0,26.5,21.5,48,48,48h480c26.5,0,48-21.5,48-48v-23.6c0-12.7-4.3-25.1-12.3-35L329,112l48-60ZM288,448h-119.5l119.5-156.3,119.5,156.3h-119.5Z"/>
</svg>